  0
SECTION
  2
HEADER
  9
$ACADVER
  1
AC1009
  9
$MEASUREMENT
 70
     1
  0
ENDSEC
  0
SECTION
  2
ENTITIES
  0
LWPOLYLINE
  8
0
 62
7
 90
5
 70
1
 10
55.278437
 20
38.100000
 10
55.278437
 20
38.998438
 10
53.681562
 20
38.998438
 10
53.681562
 20
37.201563
 10
55.278437
 20
37.201563
  0
LWPOLYLINE
  8
0
 62
7
 90
5
 70
1
 10
58.078437
 20
38.100000
 10
58.078437
 20
38.998438
 10
56.481563
 20
38.998438
 10
56.481563
 20
37.201563
 10
58.078437
 20
37.201563
  0
LWPOLYLINE
  8
0
 62
7
 90
5
 70
1
 10
60.358438
 20
48.260000
 10
60.358438
 20
49.158437
 10
58.761563
 20
49.158437
 10
58.761563
 20
47.361562
 10
60.358438
 20
47.361562
  0
LWPOLYLINE
  8
0
 62
7
 90
5
 70
1
 10
63.158437
 20
48.260000
 10
63.158437
 20
49.158437
 10
61.561563
 20
49.158437
 10
61.561563
 20
47.361562
 10
63.158437
 20
47.361562
  0
LWPOLYLINE
  8
0
 62
7
 90
5
 70
1
 10
76.200000
 20
24.731563
 10
77.098438
 20
24.731563
 10
77.098438
 20
26.328437
 10
75.301563
 20
26.328437
 10
75.301563
 20
24.731563
  0
LWPOLYLINE
  8
0
 62
7
 90
5
 70
1
 10
76.200000
 20
21.931563
 10
77.098438
 20
21.931563
 10
77.098438
 20
23.528437
 10
75.301563
 20
23.528437
 10
75.301563
 20
21.931563
  0
LWPOLYLINE
  8
0
 62
7
 90
5
 70
1
 10
52.070000
 20
46.321562
 10
52.968438
 20
46.321562
 10
52.968438
 20
47.918437
 10
51.171563
 20
47.918437
 10
51.171563
 20
46.321562
  0
LWPOLYLINE
  8
0
 62
7
 90
5
 70
1
 10
52.070000
 20
43.521563
 10
52.968438
 20
43.521563
 10
52.968438
 20
45.118437
 10
51.171563
 20
45.118437
 10
51.171563
 20
43.521563
  0
LWPOLYLINE
  8
0
 62
7
 90
5
 70
1
 10
46.990000
 20
46.321562
 10
47.888438
 20
46.321562
 10
47.888438
 20
47.918437
 10
46.091563
 20
47.918437
 10
46.091563
 20
46.321562
  0
LWPOLYLINE
  8
0
 62
7
 90
5
 70
1
 10
46.990000
 20
43.521563
 10
47.888438
 20
43.521563
 10
47.888438
 20
45.118437
 10
46.091563
 20
45.118437
 10
46.091563
 20
43.521563
  0
LWPOLYLINE
  8
0
 62
7
 90
5
 70
1
 10
54.610000
 20
17.111563
 10
55.508437
 20
17.111563
 10
55.508437
 20
18.708437
 10
53.711562
 20
18.708437
 10
53.711562
 20
17.111563
  0
LWPOLYLINE
  8
0
 62
7
 90
5
 70
1
 10
54.610000
 20
14.311562
 10
55.508437
 20
14.311562
 10
55.508437
 20
15.908437
 10
53.711562
 20
15.908437
 10
53.711562
 20
14.311562
  0
LWPOLYLINE
  8
0
 62
7
 90
5
 70
1
 10
50.800000
 20
10.761563
 10
51.698437
 20
10.761563
 10
51.698437
 20
12.358438
 10
49.901562
 20
12.358438
 10
49.901562
 20
10.761563
  0
LWPOLYLINE
  8
0
 62
7
 90
5
 70
1
 10
50.800000
 20
7.961562
 10
51.698437
 20
7.961562
 10
51.698437
 20
9.558438
 10
49.901562
 20
9.558438
 10
49.901562
 20
7.961562
  0
LWPOLYLINE
  8
0
 62
7
 90
5
 70
1
 10
66.040000
 20
15.841563
 10
66.938438
 20
15.841563
 10
66.938438
 20
17.438437
 10
65.141563
 20
17.438437
 10
65.141563
 20
15.841563
  0
LWPOLYLINE
  8
0
 62
7
 90
5
 70
1
 10
66.040000
 20
13.041562
 10
66.938438
 20
13.041562
 10
66.938438
 20
14.638438
 10
65.141563
 20
14.638438
 10
65.141563
 20
13.041562
  0
LWPOLYLINE
  8
0
 62
7
 90
5
 70
1
 10
54.610000
 20
10.761563
 10
55.508437
 20
10.761563
 10
55.508437
 20
12.358438
 10
53.711562
 20
12.358438
 10
53.711562
 20
10.761563
  0
LWPOLYLINE
  8
0
 62
7
 90
5
 70
1
 10
54.610000
 20
7.961562
 10
55.508437
 20
7.961562
 10
55.508437
 20
9.558438
 10
53.711562
 20
9.558438
 10
53.711562
 20
7.961562
  0
LWPOLYLINE
  8
0
 62
7
 90
5
 70
1
 10
46.990000
 20
17.111563
 10
47.888438
 20
17.111563
 10
47.888438
 20
18.708437
 10
46.091563
 20
18.708437
 10
46.091563
 20
17.111563
  0
LWPOLYLINE
  8
0
 62
7
 90
5
 70
1
 10
46.990000
 20
14.311562
 10
47.888438
 20
14.311562
 10
47.888438
 20
15.908437
 10
46.091563
 20
15.908437
 10
46.091563
 20
14.311562
  0
LWPOLYLINE
  8
0
 62
7
 90
5
 70
1
 10
50.800000
 20
17.111563
 10
51.698437
 20
17.111563
 10
51.698437
 20
18.708437
 10
49.901562
 20
18.708437
 10
49.901562
 20
17.111563
  0
LWPOLYLINE
  8
0
 62
7
 90
5
 70
1
 10
50.800000
 20
14.311562
 10
51.698437
 20
14.311562
 10
51.698437
 20
15.908437
 10
49.901562
 20
15.908437
 10
49.901562
 20
14.311562
  0
LWPOLYLINE
  8
0
 62
7
 90
5
 70
1
 10
49.530000
 20
33.688437
 10
48.631563
 20
33.688437
 10
48.631563
 20
32.091563
 10
50.428438
 20
32.091563
 10
50.428438
 20
33.688437
  0
LWPOLYLINE
  8
0
 62
7
 90
5
 70
1
 10
49.530000
 20
36.488437
 10
48.631563
 20
36.488437
 10
48.631563
 20
34.891562
 10
50.428438
 20
34.891562
 10
50.428438
 20
36.488437
  0
LWPOLYLINE
  8
0
 62
7
 90
5
 70
1
 10
96.648438
 20
43.830000
 10
96.648438
 20
45.028437
 10
93.851563
 20
45.028437
 10
93.851563
 20
42.631563
 10
96.648438
 20
42.631563
  0
LWPOLYLINE
  8
0
 62
7
 90
5
 70
1
 10
102.748437
 20
43.830000
 10
102.748437
 20
45.028437
 10
99.951562
 20
45.028437
 10
99.951562
 20
42.631563
 10
102.748437
 20
42.631563
  0
LWPOLYLINE
  8
0
 62
7
 90
5
 70
1
 10
96.648438
 20
55.230000
 10
96.648438
 20
56.428437
 10
93.851563
 20
56.428437
 10
93.851563
 20
54.031562
 10
96.648438
 20
54.031562
  0
LWPOLYLINE
  8
0
 62
7
 90
5
 70
1
 10
102.748437
 20
55.230000
 10
102.748437
 20
56.428437
 10
99.951562
 20
56.428437
 10
99.951562
 20
54.031562
 10
102.748437
 20
54.031562
  0
LWPOLYLINE
  8
0
 62
7
 90
5
 70
1
 10
95.311563
 20
12.700000
 10
95.311563
 20
12.451562
 10
97.808437
 20
12.451562
 10
97.808437
 20
12.948437
 10
95.311563
 20
12.948437
  0
LWPOLYLINE
  8
0
 62
7
 90
5
 70
1
 10
95.311563
 20
11.900000
 10
95.311563
 20
11.651563
 10
97.808437
 20
11.651563
 10
97.808437
 20
12.148438
 10
95.311563
 20
12.148438
  0
LWPOLYLINE
  8
0
 62
7
 90
5
 70
1
 10
95.311563
 20
14.300000
 10
95.311563
 20
14.051563
 10
97.808437
 20
14.051563
 10
97.808437
 20
14.548438
 10
95.311563
 20
14.548438
  0
LWPOLYLINE
  8
0
 62
7
 90
5
 70
1
 10
95.311563
 20
13.500000
 10
95.311563
 20
13.251563
 10
97.808437
 20
13.251563
 10
97.808437
 20
13.748437
 10
95.311563
 20
13.748437
  0
LWPOLYLINE
  8
0
 62
7
 90
5
 70
1
 10
100.811563
 20
8.200000
 10
100.811563
 20
7.201562
 10
103.308437
 20
7.201562
 10
103.308437
 20
9.198437
 10
100.811563
 20
9.198437
  0
LWPOLYLINE
  8
0
 62
7
 90
5
 70
1
 10
95.311563
 20
8.200000
 10
95.311563
 20
7.201562
 10
97.808437
 20
7.201562
 10
97.808437
 20
9.198437
 10
95.311563
 20
9.198437
  0
LWPOLYLINE
  8
0
 62
7
 90
5
 70
1
 10
100.811563
 20
17.200000
 10
100.811563
 20
16.201562
 10
103.308437
 20
16.201562
 10
103.308437
 20
18.198438
 10
100.811563
 20
18.198438
  0
LWPOLYLINE
  8
0
 62
7
 90
5
 70
1
 10
95.311563
 20
17.200000
 10
95.311563
 20
16.201562
 10
97.808437
 20
16.201562
 10
97.808437
 20
18.198438
 10
95.311563
 20
18.198438
  0
LWPOLYLINE
  8
0
 62
7
 90
5
 70
1
 10
95.311563
 20
11.100000
 10
95.311563
 20
10.851563
 10
97.808437
 20
10.851563
 10
97.808437
 20
11.348437
 10
95.311563
 20
11.348437
  0
LWPOLYLINE
  8
0
 62
7
 90
5
 70
1
 10
63.481563
 20
43.110000
 10
63.481563
 20
42.411563
 10
65.378438
 20
42.411563
 10
65.378438
 20
43.808437
 10
63.481563
 20
43.808437
  0
LWPOLYLINE
  8
0
 62
7
 90
5
 70
1
 10
59.081563
 20
43.110000
 10
59.081563
 20
42.411563
 10
60.978437
 20
42.411563
 10
60.978437
 20
43.808437
 10
59.081563
 20
43.808437
  0
LWPOLYLINE
  8
0
 62
7
 90
5
 70
1
 10
59.081563
 20
40.710000
 10
59.081563
 20
40.011563
 10
60.978437
 20
40.011563
 10
60.978437
 20
41.408437
 10
59.081563
 20
41.408437
  0
LWPOLYLINE
  8
0
 62
7
 90
5
 70
1
 10
63.481563
 20
40.710000
 10
63.481563
 20
40.011563
 10
65.378438
 20
40.011563
 10
65.378438
 20
41.408437
 10
63.481563
 20
41.408437
  0
LWPOLYLINE
  8
0
 62
7
 90
5
 70
1
 10
81.881563
 20
19.050000
 10
81.881563
 20
18.051562
 10
83.478438
 20
18.051562
 10
83.478438
 20
20.048438
 10
81.881563
 20
20.048438
  0
LWPOLYLINE
  8
0
 62
7
 90
5
 70
1
 10
79.081562
 20
19.050000
 10
79.081562
 20
18.051562
 10
80.678438
 20
18.051562
 10
80.678438
 20
20.048438
 10
79.081562
 20
20.048438
  0
LWPOLYLINE
  8
0
 62
7
 90
5
 70
1
 10
79.341562
 20
11.430000
 10
79.341562
 20
10.431563
 10
80.938438
 20
10.431563
 10
80.938438
 20
12.428437
 10
79.341562
 20
12.428437
  0
LWPOLYLINE
  8
0
 62
7
 90
5
 70
1
 10
76.541562
 20
11.430000
 10
76.541562
 20
10.431563
 10
78.138438
 20
10.431563
 10
78.138438
 20
12.428437
 10
76.541562
 20
12.428437
  0
LWPOLYLINE
  8
0
 62
7
 90
5
 70
1
 10
34.891562
 20
20.320000
 10
34.891562
 20
19.321562
 10
36.488437
 20
19.321562
 10
36.488437
 20
21.318438
 10
34.891562
 20
21.318438
  0
LWPOLYLINE
  8
0
 62
7
 90
5
 70
1
 10
32.091563
 20
20.320000
 10
32.091563
 20
19.321562
 10
33.688437
 20
19.321562
 10
33.688437
 20
21.318438
 10
32.091563
 20
21.318438
  0
LWPOLYLINE
  8
0
 62
7
 90
5
 70
1
 10
33.688437
 20
13.970000
 10
33.688437
 20
14.968438
 10
32.091563
 20
14.968438
 10
32.091563
 20
12.971563
 10
33.688437
 20
12.971563
  0
LWPOLYLINE
  8
0
 62
7
 90
5
 70
1
 10
36.488437
 20
13.970000
 10
36.488437
 20
14.968438
 10
34.891562
 20
14.968438
 10
34.891562
 20
12.971563
 10
36.488437
 20
12.971563
  0
LWPOLYLINE
  8
0
 62
7
 90
5
 70
1
 10
34.891562
 20
25.400000
 10
34.891562
 20
24.401562
 10
36.488437
 20
24.401562
 10
36.488437
 20
26.398438
 10
34.891562
 20
26.398438
  0
LWPOLYLINE
  8
0
 62
7
 90
5
 70
1
 10
32.091563
 20
25.400000
 10
32.091563
 20
24.401562
 10
33.688437
 20
24.401562
 10
33.688437
 20
26.398438
 10
32.091563
 20
26.398438
  0
LWPOLYLINE
  8
0
 62
7
 90
5
 70
1
 10
33.688437
 20
36.830000
 10
33.688437
 20
37.828437
 10
32.091563
 20
37.828437
 10
32.091563
 20
35.831562
 10
33.688437
 20
35.831562
  0
LWPOLYLINE
  8
0
 62
7
 90
5
 70
1
 10
36.488437
 20
36.830000
 10
36.488437
 20
37.828437
 10
34.891562
 20
37.828437
 10
34.891562
 20
35.831562
 10
36.488437
 20
35.831562
  0
LWPOLYLINE
  8
0
 62
7
 90
5
 70
1
 10
34.891562
 20
31.750000
 10
34.891562
 20
30.751562
 10
36.488437
 20
30.751562
 10
36.488437
 20
32.748438
 10
34.891562
 20
32.748438
  0
LWPOLYLINE
  8
0
 62
7
 90
5
 70
1
 10
32.091563
 20
31.750000
 10
32.091563
 20
30.751562
 10
33.688437
 20
30.751562
 10
33.688437
 20
32.748438
 10
32.091563
 20
32.748438
  0
LWPOLYLINE
  8
0
 62
7
 90
5
 70
1
 10
59.021563
 20
59.690000
 10
59.021563
 20
58.691562
 10
60.618437
 20
58.691562
 10
60.618437
 20
60.688437
 10
59.021563
 20
60.688437
  0
LWPOLYLINE
  8
0
 62
7
 90
5
 70
1
 10
56.221563
 20
59.690000
 10
56.221563
 20
58.691562
 10
57.818438
 20
58.691562
 10
57.818438
 20
60.688437
 10
56.221563
 20
60.688437
  0
LWPOLYLINE
  8
0
 62
7
 90
5
 70
1
 10
73.221562
 20
58.420000
 10
73.221562
 20
56.571562
 10
74.918437
 20
56.571562
 10
74.918437
 20
60.268438
 10
73.221562
 20
60.268438
  0
LWPOLYLINE
  8
0
 62
7
 90
5
 70
1
 10
67.321562
 20
58.420000
 10
67.321562
 20
56.571562
 10
69.018438
 20
56.571562
 10
69.018438
 20
60.268438
 10
67.321562
 20
60.268438
  0
LWPOLYLINE
  8
0
 62
7
 90
5
 70
1
 10
33.020000
 20
8.253438
 10
31.751563
 20
8.253438
 10
31.751563
 20
6.986562
 10
34.288438
 20
6.986562
 10
34.288438
 20
8.253438
  0
LWPOLYLINE
  8
0
 62
7
 90
5
 70
1
 10
33.020000
 20
10.793437
 10
31.751563
 20
10.793437
 10
31.751563
 20
9.526563
 10
34.288438
 20
9.526563
 10
34.288438
 20
10.793437
  0
LWPOLYLINE
  8
0
 62
7
 90
5
 70
1
 10
67.281563
 20
22.670000
 10
67.281563
 20
22.421563
 10
68.778437
 20
22.421563
 10
68.778437
 20
22.918438
 10
67.281563
 20
22.918438
  0
LWPOLYLINE
  8
0
 62
7
 90
5
 70
1
 10
67.281563
 20
23.470000
 10
67.281563
 20
23.221562
 10
68.778437
 20
23.221562
 10
68.778437
 20
23.718438
 10
67.281563
 20
23.718438
  0
LWPOLYLINE
  8
0
 62
7
 90
5
 70
1
 10
67.281563
 20
24.270000
 10
67.281563
 20
24.021562
 10
68.778437
 20
24.021562
 10
68.778437
 20
24.518438
 10
67.281563
 20
24.518438
  0
LWPOLYLINE
  8
0
 62
7
 90
5
 70
1
 10
67.281563
 20
25.070000
 10
67.281563
 20
24.821562
 10
68.778437
 20
24.821562
 10
68.778437
 20
25.318438
 10
67.281563
 20
25.318438
  0
LWPOLYLINE
  8
0
 62
7
 90
5
 70
1
 10
67.281563
 20
25.870000
 10
67.281563
 20
25.621562
 10
68.778437
 20
25.621562
 10
68.778437
 20
26.118438
 10
67.281563
 20
26.118438
  0
LWPOLYLINE
  8
0
 62
7
 90
5
 70
1
 10
67.281563
 20
26.670000
 10
67.281563
 20
26.421563
 10
68.778437
 20
26.421563
 10
68.778437
 20
26.918438
 10
67.281563
 20
26.918438
  0
LWPOLYLINE
  8
0
 62
7
 90
5
 70
1
 10
67.281563
 20
27.470000
 10
67.281563
 20
27.221562
 10
68.778437
 20
27.221562
 10
68.778437
 20
27.718438
 10
67.281563
 20
27.718438
  0
LWPOLYLINE
  8
0
 62
7
 90
5
 70
1
 10
67.281563
 20
28.270000
 10
67.281563
 20
28.021562
 10
68.778437
 20
28.021562
 10
68.778437
 20
28.518438
 10
67.281563
 20
28.518438
  0
LWPOLYLINE
  8
0
 62
7
 90
5
 70
1
 10
67.281563
 20
29.070000
 10
67.281563
 20
28.821562
 10
68.778437
 20
28.821562
 10
68.778437
 20
29.318438
 10
67.281563
 20
29.318438
  0
LWPOLYLINE
  8
0
 62
7
 90
5
 70
1
 10
67.281563
 20
29.870000
 10
67.281563
 20
29.621562
 10
68.778437
 20
29.621562
 10
68.778437
 20
30.118438
 10
67.281563
 20
30.118438
  0
LWPOLYLINE
  8
0
 62
7
 90
5
 70
1
 10
67.281563
 20
30.670000
 10
67.281563
 20
30.421563
 10
68.778437
 20
30.421563
 10
68.778437
 20
30.918438
 10
67.281563
 20
30.918438
  0
LWPOLYLINE
  8
0
 62
7
 90
5
 70
1
 10
65.981563
 20
32.470000
 10
65.981563
 20
31.721562
 10
66.478437
 20
31.721562
 10
66.478437
 20
33.218438
 10
65.981563
 20
33.218438
  0
LWPOLYLINE
  8
0
 62
7
 90
5
 70
1
 10
65.181563
 20
32.470000
 10
65.181563
 20
31.721562
 10
65.678438
 20
31.721562
 10
65.678438
 20
33.218438
 10
65.181563
 20
33.218438
  0
LWPOLYLINE
  8
0
 62
7
 90
5
 70
1
 10
64.381563
 20
32.470000
 10
64.381563
 20
31.721562
 10
64.878437
 20
31.721562
 10
64.878437
 20
33.218438
 10
64.381563
 20
33.218438
  0
LWPOLYLINE
  8
0
 62
7
 90
5
 70
1
 10
63.581562
 20
32.470000
 10
63.581562
 20
31.721562
 10
64.078437
 20
31.721562
 10
64.078437
 20
33.218438
 10
63.581562
 20
33.218438
  0
LWPOLYLINE
  8
0
 62
7
 90
5
 70
1
 10
62.781562
 20
32.470000
 10
62.781562
 20
31.721562
 10
63.278438
 20
31.721562
 10
63.278438
 20
33.218438
 10
62.781562
 20
33.218438
  0
LWPOLYLINE
  8
0
 62
7
 90
5
 70
1
 10
61.981562
 20
32.470000
 10
61.981562
 20
31.721562
 10
62.478437
 20
31.721562
 10
62.478437
 20
33.218438
 10
61.981562
 20
33.218438
  0
LWPOLYLINE
  8
0
 62
7
 90
5
 70
1
 10
61.181562
 20
32.470000
 10
61.181562
 20
31.721562
 10
61.678438
 20
31.721562
 10
61.678438
 20
33.218438
 10
61.181562
 20
33.218438
  0
LWPOLYLINE
  8
0
 62
7
 90
5
 70
1
 10
60.381563
 20
32.470000
 10
60.381563
 20
31.721562
 10
60.878438
 20
31.721562
 10
60.878438
 20
33.218438
 10
60.381563
 20
33.218438
  0
LWPOLYLINE
  8
0
 62
7
 90
5
 70
1
 10
59.581562
 20
32.470000
 10
59.581562
 20
31.721562
 10
60.078437
 20
31.721562
 10
60.078437
 20
33.218438
 10
59.581562
 20
33.218438
  0
LWPOLYLINE
  8
0
 62
7
 90
5
 70
1
 10
58.781562
 20
32.470000
 10
58.781562
 20
31.721562
 10
59.278438
 20
31.721562
 10
59.278438
 20
33.218438
 10
58.781562
 20
33.218438
  0
LWPOLYLINE
  8
0
 62
7
 90
5
 70
1
 10
57.981562
 20
32.470000
 10
57.981562
 20
31.721562
 10
58.478437
 20
31.721562
 10
58.478437
 20
33.218438
 10
57.981562
 20
33.218438
  0
LWPOLYLINE
  8
0
 62
7
 90
5
 70
1
 10
55.681562
 20
30.670000
 10
55.681562
 20
30.421563
 10
57.178438
 20
30.421563
 10
57.178438
 20
30.918438
 10
55.681562
 20
30.918438
  0
LWPOLYLINE
  8
0
 62
7
 90
5
 70
1
 10
55.681562
 20
29.870000
 10
55.681562
 20
29.621562
 10
57.178438
 20
29.621562
 10
57.178438
 20
30.118438
 10
55.681562
 20
30.118438
  0
LWPOLYLINE
  8
0
 62
7
 90
5
 70
1
 10
55.681562
 20
29.070000
 10
55.681562
 20
28.821562
 10
57.178438
 20
28.821562
 10
57.178438
 20
29.318438
 10
55.681562
 20
29.318438
  0
LWPOLYLINE
  8
0
 62
7
 90
5
 70
1
 10
55.681562
 20
28.270000
 10
55.681562
 20
28.021562
 10
57.178438
 20
28.021562
 10
57.178438
 20
28.518438
 10
55.681562
 20
28.518438
  0
LWPOLYLINE
  8
0
 62
7
 90
5
 70
1
 10
55.681562
 20
27.470000
 10
55.681562
 20
27.221562
 10
57.178438
 20
27.221562
 10
57.178438
 20
27.718438
 10
55.681562
 20
27.718438
  0
LWPOLYLINE
  8
0
 62
7
 90
5
 70
1
 10
55.681562
 20
26.670000
 10
55.681562
 20
26.421563
 10
57.178438
 20
26.421563
 10
57.178438
 20
26.918438
 10
55.681562
 20
26.918438
  0
LWPOLYLINE
  8
0
 62
7
 90
5
 70
1
 10
55.681562
 20
25.870000
 10
55.681562
 20
25.621562
 10
57.178438
 20
25.621562
 10
57.178438
 20
26.118438
 10
55.681562
 20
26.118438
  0
LWPOLYLINE
  8
0
 62
7
 90
5
 70
1
 10
55.681562
 20
25.070000
 10
55.681562
 20
24.821562
 10
57.178438
 20
24.821562
 10
57.178438
 20
25.318438
 10
55.681562
 20
25.318438
  0
LWPOLYLINE
  8
0
 62
7
 90
5
 70
1
 10
55.681562
 20
24.270000
 10
55.681562
 20
24.021562
 10
57.178438
 20
24.021562
 10
57.178438
 20
24.518438
 10
55.681562
 20
24.518438
  0
LWPOLYLINE
  8
0
 62
7
 90
5
 70
1
 10
55.681562
 20
23.470000
 10
55.681562
 20
23.221562
 10
57.178438
 20
23.221562
 10
57.178438
 20
23.718438
 10
55.681562
 20
23.718438
  0
LWPOLYLINE
  8
0
 62
7
 90
5
 70
1
 10
55.681562
 20
22.670000
 10
55.681562
 20
22.421563
 10
57.178438
 20
22.421563
 10
57.178438
 20
22.918438
 10
55.681562
 20
22.918438
  0
LWPOLYLINE
  8
0
 62
7
 90
5
 70
1
 10
57.981562
 20
20.870000
 10
57.981562
 20
20.121562
 10
58.478437
 20
20.121562
 10
58.478437
 20
21.618438
 10
57.981562
 20
21.618438
  0
LWPOLYLINE
  8
0
 62
7
 90
5
 70
1
 10
58.781562
 20
20.870000
 10
58.781562
 20
20.121562
 10
59.278438
 20
20.121562
 10
59.278438
 20
21.618438
 10
58.781562
 20
21.618438
  0
LWPOLYLINE
  8
0
 62
7
 90
5
 70
1
 10
59.581562
 20
20.870000
 10
59.581562
 20
20.121562
 10
60.078437
 20
20.121562
 10
60.078437
 20
21.618438
 10
59.581562
 20
21.618438
  0
LWPOLYLINE
  8
0
 62
7
 90
5
 70
1
 10
60.381563
 20
20.870000
 10
60.381563
 20
20.121562
 10
60.878438
 20
20.121562
 10
60.878438
 20
21.618438
 10
60.381563
 20
21.618438
  0
LWPOLYLINE
  8
0
 62
7
 90
5
 70
1
 10
61.181562
 20
20.870000
 10
61.181562
 20
20.121562
 10
61.678438
 20
20.121562
 10
61.678438
 20
21.618438
 10
61.181562
 20
21.618438
  0
LWPOLYLINE
  8
0
 62
7
 90
5
 70
1
 10
61.981562
 20
20.870000
 10
61.981562
 20
20.121562
 10
62.478437
 20
20.121562
 10
62.478437
 20
21.618438
 10
61.981562
 20
21.618438
  0
LWPOLYLINE
  8
0
 62
7
 90
5
 70
1
 10
62.781562
 20
20.870000
 10
62.781562
 20
20.121562
 10
63.278438
 20
20.121562
 10
63.278438
 20
21.618438
 10
62.781562
 20
21.618438
  0
LWPOLYLINE
  8
0
 62
7
 90
5
 70
1
 10
63.581562
 20
20.870000
 10
63.581562
 20
20.121562
 10
64.078437
 20
20.121562
 10
64.078437
 20
21.618438
 10
63.581562
 20
21.618438
  0
LWPOLYLINE
  8
0
 62
7
 90
5
 70
1
 10
64.381563
 20
20.870000
 10
64.381563
 20
20.121562
 10
64.878437
 20
20.121562
 10
64.878437
 20
21.618438
 10
64.381563
 20
21.618438
  0
LWPOLYLINE
  8
0
 62
7
 90
5
 70
1
 10
65.181563
 20
20.870000
 10
65.181563
 20
20.121562
 10
65.678438
 20
20.121562
 10
65.678438
 20
21.618438
 10
65.181563
 20
21.618438
  0
LWPOLYLINE
  8
0
 62
7
 90
5
 70
1
 10
65.981563
 20
20.870000
 10
65.981563
 20
20.121562
 10
66.478437
 20
20.121562
 10
66.478437
 20
21.618438
 10
65.981563
 20
21.618438
  0
ENDSEC
  0
EOF
